<?xml version="1.0" encoding="UTF-8" standalone="no"?>
<!DOCTYPE svg PUBLIC "-//W3C//DTD SVG 1.1//EN" "http://www.w3.org/Graphics/SVG/1.1/DTD/svg11.dtd">
<svg width="100%" height="100%" viewBox="0 0 2379 436" version="1.1" xmlns="http://www.w3.org/2000/svg" xmlns:xlink="http://www.w3.org/1999/xlink" xml:space="preserve" xmlns:serif="http://www.serif.com/" style="fill-rule:evenodd;clip-rule:evenodd;stroke-linejoin:round;stroke-miterlimit:2;">
    <g transform="matrix(1,0,0,1,-1435.93,-758.568)">
        <g transform="matrix(1,0,0,1,125.46,-1118.01)">
            <g transform="matrix(1,0,0,1,0,-491)">
                <g transform="matrix(0.346836,0,0,0.346836,710.717,2036.65)">
                    <path d="M1729.21,1667.59C1839.02,1667.84 1941.22,1700.74 2026.55,1757.17C2028.68,1767.71 2031,1778.17 2033.53,1788.56L2033.78,1789.68L2034.25,1791.49L2037.37,1804.1L2041.93,1820.72L2042.19,1821.71L2042.32,1822.11C2045.13,1832.04 2048.12,1841.9 2051.3,1851.67L2051.78,1853.26L2052.65,1855.78L2056.36,1867.04L2061.92,1882.61L2062.51,1884.3L2062.76,1884.95C2066.21,1894.34 2069.81,1903.65 2073.6,1912.88L2074.35,1914.81L2075.61,1917.73L2079.83,1927.91L2086.37,1942.64L2087.28,1944.75L2087.65,1945.51C2091.7,1954.42 2095.9,1963.25 2100.28,1972L2101.28,1974.1L2102.89,1977.19L2107.6,1986.51L2115.17,2000.64L2116.32,2002.85L2116.76,2003.62C2121.42,2012.11 2126.21,2020.52 2131.16,2028.82L2132.38,2030.96L2134.26,2033.98L2139.46,2042.64L2148.18,2056.4L2149.44,2058.41L2149.89,2059.09C2155.15,2067.21 2160.54,2075.24 2166.09,2083.14L2167.46,2085.18L2169.48,2087.96L2175.23,2096.12L2185.29,2109.68L2186.43,2111.24L2186.82,2111.74C2192.71,2119.52 2198.72,2127.2 2204.89,2134.75L2206.32,2136.57L2208.35,2138.97L2214.71,2146.74L2226.36,2160.27L2227.1,2161.14L2227.34,2161.41C2233.88,2168.87 2240.55,2176.22 2247.38,2183.42L2248.76,2184.93L2250.64,2186.86L2257.71,2194.31L2271.26,2207.92C2271.26,2207.92 2271.3,2209.64 2271.3,2209.64C1972.45,2208.95 1729.95,1966.48 1729.21,1667.59Z" style="fill:rgb(23,233,84);fill-opacity:0.89;"/>
                </g>
                <g transform="matrix(1,0,0,1,500.003,1500)">
                    <path d="M948.565,932.456C962.415,908.586 979.419,886.772 999,867.573C1018.59,886.783 1035.61,908.611 1049.45,932.487L1049.78,933.051C1075.68,977.86 1090.5,1029.85 1090.5,1085.27C1090.5,1170.5 1055.47,1247.61 999.001,1302.97L998.468,1302.44C998.296,1269.78 989.794,1239.08 974.978,1212.35C960.16,1185.62 939.027,1162.87 913.593,1146.11L912.388,1139.9L911.107,1132.28L910.015,1124.59L909.116,1116.84L908.413,1109.03L907.908,1101.16L907.602,1093.24L907.5,1085.27L907.656,1075.9L907.765,1073.07L908.101,1066.37L908.292,1063.4L908.923,1055.86L909.077,1054.15L910.143,1045.06L910.486,1042.64L911.504,1035.9L911.997,1032.97L913.237,1026.28L913.691,1023.94L915.623,1015.14L916.045,1013.44L917.843,1006.37L918.607,1003.58L920.408,997.361L921.186,994.785L923.945,986.304L924.023,986.086L926.972,977.934L927.952,975.393L930.314,969.472L931.406,966.839L934.32,960.168L934.971,958.7L938.741,950.775L939.845,948.587L942.809,942.84L944.196,940.25L947.361,934.566L948.239,933.02L948.565,932.456Z" style="fill:rgb(17,157,149);fill-opacity:0.9;"/>
                </g>
                <g transform="matrix(0.346836,0,0,0.346836,1137.72,2036.65)">
                    <path d="M795.417,1757.18C868.747,1805.5 929.68,1871.11 972.402,1948.17C1015.12,2025.24 1039.63,2113.75 1040.13,2207.91L1037.5,2205.28L1021.93,2189.37L1009.37,2175.9L1001.1,2166.82L989.403,2153.42L981.028,2143.52L970.076,2130.1L961.74,2119.48L951.476,2106.03L943.231,2094.7L933.657,2081.24L925.461,2069.07L916.951,2056.23L916.058,2054.82L908.162,2042.11L902.247,2032.51L899.663,2028.21L885.906,2004.12L884.762,2001.99L880.385,1993.69L872.201,1978.05L870.339,1974.36L865.577,1964.54L857.706,1948.04L852.312,1935.89L845.147,1919.3L840.155,1906.95L833.558,1889.96L829.046,1877.6L822.951,1859.96L818.98,1847.81L813.328,1829.21L809.965,1817.59L804.662,1797.41L802.018,1786.94L795.572,1757.97L795.417,1757.18Z" style="fill:rgb(0,255,164);fill-opacity:0.9;"/>
                </g>
            </g>
            <g transform="matrix(1,0,0,1,107,1280.78)">
                <g transform="matrix(416.667,0,0,416.667,1516.11,1025)">
                    <path d="M0.62,-0L0.487,-0.273C0.569,-0.31 0.609,-0.389 0.609,-0.486C0.609,-0.605 0.55,-0.697 0.425,-0.716C0.407,-0.719 0.382,-0.72 0.368,-0.72L0.07,-0.72L0.07,-0L0.191,-0L0.191,-0.252L0.362,-0.252L0.484,-0L0.62,-0ZM0.191,-0.607L0.363,-0.607C0.376,-0.607 0.394,-0.606 0.408,-0.603C0.468,-0.587 0.487,-0.532 0.487,-0.486C0.487,-0.44 0.468,-0.384 0.408,-0.369C0.394,-0.365 0.376,-0.364 0.363,-0.364L0.191,-0.364L0.191,-0.607Z" style="fill-rule:nonzero;"/>
                </g>
                <g transform="matrix(416.667,0,0,416.667,1753.11,1025)">
                    <path d="M0.169,-0.237L0.56,-0.237C0.574,-0.431 0.476,-0.555 0.309,-0.555C0.15,-0.555 0.04,-0.441 0.04,-0.264C0.04,-0.1 0.152,0.015 0.316,0.015C0.42,0.015 0.513,-0.041 0.554,-0.139L0.435,-0.175C0.412,-0.125 0.368,-0.098 0.309,-0.098C0.227,-0.098 0.179,-0.148 0.169,-0.237ZM0.314,-0.45C0.388,-0.45 0.428,-0.412 0.438,-0.328L0.172,-0.328C0.186,-0.408 0.233,-0.45 0.314,-0.45Z" style="fill-rule:nonzero;"/>
                </g>
                <g transform="matrix(416.667,0,0,416.667,1972.25,1025)">
                    <path d="M0.654,-0.554C0.584,-0.554 0.523,-0.521 0.49,-0.468C0.461,-0.52 0.408,-0.554 0.332,-0.554C0.267,-0.554 0.211,-0.526 0.176,-0.482L0.176,-0.54L0.069,-0.54L0.069,-0L0.191,-0L0.191,-0.333C0.191,-0.4 0.231,-0.446 0.292,-0.446C0.355,-0.446 0.395,-0.402 0.395,-0.327L0.395,-0L0.515,-0L0.515,-0.333C0.515,-0.404 0.559,-0.446 0.617,-0.446C0.679,-0.446 0.719,-0.402 0.719,-0.328L0.719,-0L0.839,-0L0.839,-0.359C0.839,-0.476 0.774,-0.554 0.654,-0.554Z" style="fill-rule:nonzero;"/>
                </g>
                <g transform="matrix(416.667,0,0,416.667,2315.33,1025)">
                    <path d="M0.496,-0.455C0.46,-0.526 0.384,-0.555 0.288,-0.555C0.161,-0.555 0.086,-0.495 0.06,-0.404L0.17,-0.369C0.188,-0.424 0.239,-0.445 0.288,-0.445C0.361,-0.445 0.394,-0.416 0.398,-0.354C0.304,-0.34 0.22,-0.328 0.163,-0.31C0.078,-0.28 0.04,-0.227 0.04,-0.148C0.04,-0.059 0.104,0.015 0.221,0.015C0.307,0.015 0.365,-0.013 0.411,-0.073L0.411,-0L0.516,-0L0.516,-0.332C0.516,-0.378 0.515,-0.417 0.496,-0.455ZM0.385,-0.171C0.373,-0.133 0.327,-0.081 0.245,-0.081C0.188,-0.081 0.158,-0.11 0.158,-0.15C0.158,-0.185 0.182,-0.205 0.224,-0.221C0.262,-0.234 0.311,-0.241 0.397,-0.255C0.396,-0.23 0.395,-0.195 0.385,-0.171Z" style="fill-rule:nonzero;"/>
                </g>
                <g transform="matrix(416.667,0,0,416.667,2512.28,1025)">
                    <path d="M0.231,-0.512C0.208,-0.498 0.19,-0.477 0.177,-0.454L0.177,-0.54L0.07,-0.54L0.07,-0L0.191,-0L0.191,-0.275C0.191,-0.337 0.213,-0.388 0.263,-0.415C0.296,-0.434 0.342,-0.437 0.374,-0.428L0.374,-0.54C0.326,-0.548 0.271,-0.539 0.231,-0.512Z" style="fill-rule:nonzero;"/>
                </g>
                <g transform="matrix(416.667,0,0,416.667,2651.15,1025)">
                    <path d="M0.069,-0L0.192,-0L0.192,-0.26L0.399,-0L0.558,-0L0.331,-0.27L0.54,-0.54L0.39,-0.54L0.192,-0.28L0.192,-0.72L0.07,-0.72L0.069,-0Z" style="fill-rule:nonzero;"/>
                </g>
                <g transform="matrix(416.667,0,0,416.667,2853.03,1025)">
                    <path d="M0.496,-0.455C0.46,-0.526 0.384,-0.555 0.288,-0.555C0.161,-0.555 0.086,-0.495 0.06,-0.404L0.17,-0.369C0.188,-0.424 0.239,-0.445 0.288,-0.445C0.361,-0.445 0.394,-0.416 0.398,-0.354C0.304,-0.34 0.22,-0.328 0.163,-0.31C0.078,-0.28 0.04,-0.227 0.04,-0.148C0.04,-0.059 0.104,0.015 0.221,0.015C0.307,0.015 0.365,-0.013 0.411,-0.073L0.411,-0L0.516,-0L0.516,-0.332C0.516,-0.378 0.515,-0.417 0.496,-0.455ZM0.385,-0.171C0.373,-0.133 0.327,-0.081 0.245,-0.081C0.188,-0.081 0.158,-0.11 0.158,-0.15C0.158,-0.185 0.182,-0.205 0.224,-0.221C0.262,-0.234 0.311,-0.241 0.397,-0.255C0.396,-0.23 0.395,-0.195 0.385,-0.171Z" style="fill-rule:nonzero;"/>
                </g>
                <g transform="matrix(416.667,0,0,416.667,3052.25,1025)">
                    <path d="M0.325,-0.555C0.271,-0.555 0.227,-0.54 0.191,-0.514L0.191,-0.72L0.069,-0.72L0.069,-0L0.176,-0L0.176,-0.04C0.214,-0.005 0.266,0.015 0.33,0.015C0.479,0.015 0.576,-0.108 0.576,-0.27C0.576,-0.434 0.478,-0.555 0.325,-0.555ZM0.311,-0.093C0.214,-0.093 0.176,-0.166 0.176,-0.27C0.176,-0.376 0.215,-0.447 0.307,-0.447C0.404,-0.447 0.449,-0.368 0.449,-0.27C0.449,-0.171 0.405,-0.093 0.311,-0.093Z" style="fill-rule:nonzero;"/>
                </g>
                <g transform="matrix(416.667,0,0,416.667,3269.97,1025)">
                    <rect x="0.08" y="-0.735" width="0.121" height="0.735" style="fill-rule:nonzero;"/>
                </g>
                <g transform="matrix(416.667,0,0,416.667,3347.83,1025)">
                    <path d="M0.169,-0.237L0.56,-0.237C0.574,-0.431 0.476,-0.555 0.309,-0.555C0.15,-0.555 0.04,-0.441 0.04,-0.264C0.04,-0.1 0.152,0.015 0.316,0.015C0.42,0.015 0.513,-0.041 0.554,-0.139L0.435,-0.175C0.412,-0.125 0.368,-0.098 0.309,-0.098C0.227,-0.098 0.179,-0.148 0.169,-0.237ZM0.314,-0.45C0.388,-0.45 0.428,-0.412 0.438,-0.328L0.172,-0.328C0.186,-0.408 0.233,-0.45 0.314,-0.45Z" style="fill-rule:nonzero;"/>
                </g>
            </g>
        </g>
    </g>
</svg>
